<svg xmlns="http://www.w3.org/2000/svg" height="250" width="250" version="1.1" viewBox="0 0 66.145832 66.145835">
 <g transform="translate(0 -230.85)">
  <g transform="matrix(.94150 0 0 .94150 1.9345 15.439)">
   <path d="m127.63-7.7676-4.03 4.4141-7.3 7.9805-11.76-10.838-9.003 14.182-13.473-8.6312-6.408 15.525-14.763-6.1638-3.618 16.403l-15.605-3.5-0.70703 16.779-15.975-0.73828 2.207 16.646-15.857 2.0449 5.0723 16.012-15.273 4.7676 7.7734 14.891-14.203 7.3438 10.246 13.311-12.719 9.707 12.395 11.332-10.838 11.766 14.174 9.0059-8.6289 13.465 15.523 6.4082-6.1562 14.764 16.402 3.6172-3.5059 15.605 16.779 0.70703-0.73828 15.975 16.646-2.2148 2.0508 15.865 16.012-5.0723 4.7695 15.273 14.881-7.79 7.3535 14.203 13.309-10.238 9.707 12.711 11.324-12.395 11.773 10.838 9.0059-14.174 13.465 8.6289 6.4082-15.523 14.756 6.1563 3.6172-16.402 15.605 3.5059 0.70898-16.779 15.982 0.73829-2.2148-16.646 15.863-2.0508-5.0723-16.012 15.266-4.7695-7.7715-14.889 14.209-7.3457-10.246-13.309 12.719-9.707-12.395-11.324 10.838-11.773-14.182-9 8.6309-13.471-15.525-6.4082 6.1641-14.764-16.402-3.6094 3.5-15.605-16.779-0.70898 0.73828-15.982-16.646 2.209-2.0449-15.857-16.012 5.0723-4.7676-15.266-14.891 7.7656-7.3438-14.203-13.311 10.246z" style="color-rendering:auto;text-decoration-color:#000000;color:#000000;font-variant-numeric:normal;shape-rendering:auto;solid-color:#000000;text-decoration-line:none;fill:#fff;fill-rule:evenodd;font-variant-position:normal;mix-blend-mode:normal;fill-opacity:.99558;font-feature-settings:normal;shape-padding:0;font-variant-alternates:normal;text-indent:0;font-variant-ligatures:normal;dominant-baseline:auto;font-variant-caps:normal;image-rendering:auto;white-space:normal;text-decoration-style:solid;text-orientation:mixed;isolation:auto;paint-order:normal;text-transform:none" transform="matrix(.26458 0 0 .26458 0 230.85)"/>
   <path d="m33.678 230.86-2.8257 3.0918-2.9259-2.6949-2.2459 3.5357-3.3492-2.1456-1.5973 3.8721-3.6711-1.5317-0.90124 4.0907-3.8809-0.87075-0.17725 4.1848-3.9729-0.18345 0.5519 4.1517-3.9445 0.50901 1.2645 3.993-3.7962 1.1865 1.9389 3.713-3.5326 1.8273 2.5544 3.3197-3.1616 2.4133 3.0918 2.8257-2.6949 2.9259 3.5357 2.2459-2.1456 3.3492 3.8721 1.5973-1.5317 3.6711 4.0907 0.90124-0.87075 3.8809 4.1848 0.17725-0.18345 3.9729 4.1517-0.5519 0.50901 3.9445 3.9936-1.2645 1.186 3.7962 3.713-1.9389 1.8273 3.5326 3.3197-2.5544 2.4133 3.1616 2.8257-3.0918 2.9259 2.6949 2.2459-3.5357 3.3492 2.1456 1.5978-3.8721 3.6706 1.5317 0.90124-4.0907 3.8809 0.87074 0.17725-4.1848 3.9729 0.18345-0.5519-4.1517 3.9445-0.50901-1.2645-3.9936 3.7962-1.186-1.9389-3.713 3.5326-1.8273-2.5544-3.3197 3.1616-2.4133-3.0918-2.8257 2.6949-2.9259-3.5357-2.2459 2.1456-3.3492-3.8721-1.5973 1.5317-3.6711-4.0907-0.90124 0.87075-3.8809-4.1848-0.17725 0.18345-3.9729-4.1517 0.5519-0.50901-3.9445-3.993 1.2645-1.1865-3.7962-3.713 1.9389-1.8273-3.5326-3.3197 2.5544zm-0.17053 6.0834a26.988 26.988 0 0 1 26.55 27.42 26.988 26.988 0 0 1 -27.419 26.55 26.988 26.988 0 0 1 -26.549 -27.42 26.988 26.988 0 0 1 27.419 -26.55zm-0.01964 1.1901a25.797 25.797 0 0 0 -26.209 25.379 25.797 25.797 0 0 0 25.379 26.209 25.797 25.797 0 0 0 9.7338 -1.7524l-0.0016-0.004a25.797 25.797 0 0 1 -0.001 0.00052c-0.60939-0.0746-1.5185-0.26117-3.0965-0.83922-4.1023-1.5028-1.225-0.70043-0.33021-0.73743 0.966-0.04 1.1181 0.0251 1.4309-0.13074 0.32372-0.16125 0.27658-1.4623-0.39894-2.0686-1.051-0.94331-1.811-1.3206-3.2706-2.2066-1.8266-1.1086-2.6811-1.5596-4.6581-1.849-3.8632-0.56539-4.8309-1.2739-6.2554-2.0319-1.4246-0.75801-2.3262-1.3143-3.4592-1.4996-1.1331-0.18531-1.6277 0.31863-2.4061 0.34623-1.195 0.0423-4.6774-0.31001-2.1342-0.46922 1.8667-0.11686 2.8908-0.099 0.74776-0.91674-0.4682-0.17867-2.2206-0.53426-2.8846-0.86506-0.88377-0.44032-0.50954-0.89364-2.0965-1.4733-1.9926-0.72776-4.6535-1.6242-0.55604-0.82579 2.184 0.42557 2.4778 1.1095 4.2276 1.4258 1.6803 0.30371 3.7365 1.0339 5.3346 1.3937 1.598 0.35986 2.9053 0.89614 4.2432 1.572s2.2636 0.96403 2.7647 0.97203c0.50106 0.008 0.33882-0.29544 0.67179-0.22324 0.33296 0.0722 1.6963 0.46189 0.47491-0.45992-1.2214-0.92182-1.52-1.0607-2.5771-1.8128s-1.5962-0.4597-2.2562-0.97152c-0.65999-0.51182-0.45475-0.80927-0.68213-1.2139-0.22738-0.40461-3.2799-1.757-3.2799-1.757s-6.2045-4.7778-3.4572-3.1631c2.7473 1.6146 6.6556 3.7493 8.3587 3.8101 1.0577 0.0378 1.8007-0.93605 2.8014-1.5663 1.557-0.98062 1.2405-0.75969 0.82579-1.6769-0.41757-0.92352-0.40502-1.817-1.4568-2.9032-1.0517-1.0862-2.5664-2.4805-2.727-2.8841-0.16057-0.40355-0.12199-0.70374-1.0439-1.5539-0.92188-0.85016-0.99947-2.255-0.98495-3.1569 0.01452-0.90192 0.03195-2.0036 1.111-4.6927 1.0791-2.6891 2.0939-5.5131-2.7983-8.7995 0.04109-0.37577 0.68107-0.46306 0.89555-0.57774 0.17426-0.0932 1.6661-0.66429 3.2045-0.65629 0.35502 0.002 0.713 0.0342 1.0573 0.11059 1.8363 0.40759 1.9151 1.3538 1.989 2.6308 0.07396 1.277-0.77648 2.3207-0.84026 4.2075-0.06379 1.8868 1.3296 2.5105 2.0562 3.0401 0.72656 0.52959 1.2535 1.1052 1.6314 1.4955 0.37797 0.39033 1.7462 1.7535 2.2825 2.5905 1.3086 2.0423 3.1065 4.1724 3.6949 4.9082 1.0108 1.2642 1.8189 3.153 2.1942 3.7104 0.37528 0.55735 1.8441 2.3479 2.5983 3.3626 0.9483 1.2758 0.50315 1.0077-0.1111 1.064-1.1484 0.1052-1.1246-0.006-0.91571 0.65732 0.13008 0.41325 0.63325 1.165 1.0904 1.7544 0.39106 0.50424 1.2698 1.552 1.7751 2.1642 0.65815 0.79736 1.341 2.6409 3.2892 4.2308 1.2082 0.98604 1.4979 1.4675 0.64182 1.8082-0.85603 0.3406-1.7541 0.35196-2.4841 0.19844-0.72995-0.15351-2.5468-0.54659-3.7264-2.1249-1.1795-1.5783-1.9707-3.1184-3.3218-4.869-1.1688-1.5144-1.7426-2.3118-2.7673-3.0313-1.1699-0.82159-1.9829-2.1023-3.3858-2.1249-1.403-0.0226-0.69998 1.0242-2.5032 3.0334s-0.78983 2.2762-0.17777 2.6536 0.64682 0.31102 2.3637 1.5916 3.8146 2.7684 5.0891 3.5073 1.387 1.0077 2.4427 1.8433c1.0558 0.83562 1.9806 0.63308 3.022 1.6743 1.5787 1.5783 1.0555 1.3535 2.7084 2.4293a25.797 25.797 0 0 0 12.501 -21.69 25.797 25.797 0 0 0 -25.379 -26.21zm-3.182 33.39c-0.13159 0.0129-0.45353 0.17055-1.0862 0.57309v0.00052c-0.17488 0.11127-0.59506 0.4883-0.82424 0.68575-0.24599 0.21193-0.47378 0.19513-0.08578 0.45113 0.0827 0.0544 0.18134 0.022 0.50643 0.005 0.27716-0.0148 0.52647-0.36568 0.87592-0.76222 0.27174-0.30834 0.90342-0.98121 0.61392-0.95292z" style="fill:#3a98d5;paint-order:normal;fill-rule:evenodd"/>
  </g>
 </g>
</svg>
